<svg width="3329" height="3807" xmlns="http://www.w3.org/2000/svg" xmlns:xlink="http://www.w3.org/1999/xlink" xml:space="preserve" overflow="hidden"><g transform="translate(-669 -487)"><path d="M2624.5 490.5C3129.68 490.5 3607.37 718.741 3922.34 1110.61L2624.5 2137.5 2624.5 490.5Z" stroke="#FFFFFF" stroke-width="6.875" stroke-linecap="round" stroke-linejoin="round" stroke-miterlimit="10" fill="#90C226" fill-rule="evenodd"/><text fill="#FFFFFF" font-family="Trebuchet MS,Trebuchet MS_MSFontService,sans-serif" font-weight="400" font-size="73" transform="matrix(1 0 0 1 2713.85 883)">1. </text><text fill="#FFFFFF" font-family="Trebuchet MS,Trebuchet MS_MSFontService,sans-serif" font-weight="400" font-size="64" transform="matrix(1 0 0 1 2801.51 883)">Πρόσβαση στην </text><text fill="#FFFFFF" font-family="Trebuchet MS,Trebuchet MS_MSFontService,sans-serif" font-weight="400" font-size="64" transform="matrix(1 0 0 1 2713.85 955)">Πλατφόρμα μέσω</text><text fill="#FFFFFF" font-family="Trebuchet MS,Trebuchet MS_MSFontService,sans-serif" font-weight="400" font-size="50" transform="matrix(1 0 0 1 2713.85 1039)">•</text><text fill="#FFFFFF" font-family="Trebuchet MS,Trebuchet MS_MSFontService,sans-serif" font-weight="700" font-size="50" transform="matrix(1 0 0 1 2762.66 1039)">Κινητού τηλεφώνου </text><text fill="#FFFFFF" font-family="Trebuchet MS,Trebuchet MS_MSFontService,sans-serif" font-weight="400" font-size="50" transform="matrix(1 0 0 1 3246.78 1039)">μέσω της </text><text fill="#FFFFFF" font-family="Trebuchet MS,Trebuchet MS_MSFontService,sans-serif" font-weight="400" font-size="50" transform="matrix(1 0 0 1 2762.66 1094)">ιστοσελίδας </text><text fill="#FFFFFF" font-family="Trebuchet MS,Trebuchet MS_MSFontService,sans-serif" font-weight="400" font-size="50" transform="matrix(1 0 0 1 3043.39 1094)">coffe2go.com</text><text fill="#FFFFFF" font-family="Trebuchet MS,Trebuchet MS_MSFontService,sans-serif" font-weight="400" font-size="50" transform="matrix(1 0 0 1 2713.85 1157)">•</text><text fill="#FFFFFF" font-family="Trebuchet MS,Trebuchet MS_MSFontService,sans-serif" font-weight="700" font-size="50" transform="matrix(1 0 0 1 2762.66 1157)">Tablet</text><text fill="#FFFFFF" font-family="Trebuchet MS,Trebuchet MS_MSFontService,sans-serif" font-weight="400" font-size="50" transform="matrix(1 0 0 1 2929.38 1157)">λεωφορείου</text><text fill="#FFFFFF" font-family="Trebuchet MS,Trebuchet MS_MSFontService,sans-serif" font-weight="400" font-size="50" transform="matrix(1 0 0 1 2713.85 1348)">Ο χρήστης έχει την επιλογή να </text><text fill="#FFFFFF" font-family="Trebuchet MS,Trebuchet MS_MSFontService,sans-serif" font-weight="400" font-size="50" transform="matrix(1 0 0 1 2713.85 1402)">δημιουργήσει λογαριασμό, να </text><text fill="#FFFFFF" font-family="Trebuchet MS,Trebuchet MS_MSFontService,sans-serif" font-weight="400" font-size="50" transform="matrix(1 0 0 1 2713.85 1457)">συνδεθεί ή να συνεχίσει ως </text><text fill="#FFFFFF" font-family="Trebuchet MS,Trebuchet MS_MSFontService,sans-serif" font-weight="400" font-size="50" transform="matrix(1 0 0 1 2713.85 1511)">επισκέπτης</text><path d="M3631.34 1616.61C3946.31 2008.48 4064.29 2521.34 3951.88 3009.99L2333.5 2643.5 3631.34 1616.61Z" stroke="#FFFFFF" stroke-width="6.875" stroke-linecap="round" stroke-linejoin="round" stroke-miterlimit="10" fill="#90C226" fill-rule="evenodd"/><text fill="#FFFFFF" font-family="Trebuchet MS,Trebuchet MS_MSFontService,sans-serif" font-weight="400" font-size="54" transform="matrix(1 0 0 1 3059.32 2456)">2. </text><text fill="#FFFFFF" font-family="Trebuchet MS,Trebuchet MS_MSFontService,sans-serif" font-weight="400" font-size="64" transform="matrix(1 0 0 1 3124.64 2456)">Καθορισμός Διαδρομής με </text><text fill="#FFFFFF" font-family="Trebuchet MS,Trebuchet MS_MSFontService,sans-serif" font-weight="700" font-size="64" transform="matrix(1 0 0 1 3087.12 2525)">σκανάρισμα του </text><text fill="#FFFFFF" font-family="Trebuchet MS,Trebuchet MS_MSFontService,sans-serif" font-weight="700" font-size="64" transform="matrix(1 0 0 1 3584.41 2525)">QR</text><text fill="#FFFFFF" font-family="Trebuchet MS,Trebuchet MS_MSFontService,sans-serif" font-weight="700" font-size="64" transform="matrix(1 0 0 1 3668.63 2525)">-</text><text fill="#FFFFFF" font-family="Trebuchet MS,Trebuchet MS_MSFontService,sans-serif" font-weight="700" font-size="64" transform="matrix(1 0 0 1 3692.12 2525)">code</text><path d="M3951.88 3009.99C3839.47 3498.65 3508.9 3909.92 3053.75 4127.4L2333.5 2643.5 3951.88 3009.99Z" stroke="#FFFFFF" stroke-width="6.875" stroke-linecap="round" stroke-linejoin="round" stroke-miterlimit="10" fill="#90C226" fill-rule="evenodd"/><text fill="#FFFFFF" font-family="Trebuchet MS,Trebuchet MS_MSFontService,sans-serif" font-weight="400" font-size="54" transform="matrix(1 0 0 1 2896.27 3315)">3.</text><text fill="#FFFFFF" font-family="Trebuchet MS,Trebuchet MS_MSFontService,sans-serif" font-weight="700" font-size="64" transform="matrix(1 0 0 1 2961.58 3315)">Επιλογή καταστήματος </text><path d="M3053.71 4127.41C2598.57 4344.87 2068.39 4344.86 1613.25 4127.4L2333.5 2643.5 3053.71 4127.41Z" stroke="#FFFFFF" stroke-width="6.875" stroke-linecap="round" stroke-linejoin="round" stroke-miterlimit="10" fill="#90C226" fill-rule="evenodd"/><text fill="#FFFFFF" font-family="Trebuchet MS,Trebuchet MS_MSFontService,sans-serif" font-weight="400" font-size="54" transform="matrix(1 0 0 1 1930.49 3751)">4. </text><text fill="#FFFFFF" font-family="Trebuchet MS,Trebuchet MS_MSFontService,sans-serif" font-weight="700" font-size="73" transform="matrix(1 0 0 1 1995.8 3751)">Επιλογή Προϊόντων </text><text fill="#FFFFFF" font-family="Trebuchet MS,Trebuchet MS_MSFontService,sans-serif" font-weight="400" font-size="50" transform="matrix(1 0 0 1 1930.49 3842)">Με το πάτημα σε οποιοδήποτε </text><text fill="#FFFFFF" font-family="Trebuchet MS,Trebuchet MS_MSFontService,sans-serif" font-weight="400" font-size="50" transform="matrix(1 0 0 1 1930.49 3896)">προϊόν εμφανίζεται μενού για τη </text><text fill="#FFFFFF" font-family="Trebuchet MS,Trebuchet MS_MSFontService,sans-serif" font-weight="700" font-size="50" transform="matrix(1 0 0 1 1930.49 3951)">παραμετροποίηση υλικών</text><text fill="#FFFFFF" font-family="Trebuchet MS,Trebuchet MS_MSFontService,sans-serif" font-weight="400" font-size="43" transform="matrix(1 0 0 1 2545.8 3951)">(π.χ. </text><text fill="#FFFFFF" font-family="Trebuchet MS,Trebuchet MS_MSFontService,sans-serif" font-weight="400" font-size="43" transform="matrix(1 0 0 1 1930.49 3999)">προσθήκη ζάχαρης)</text><path d="M1613.25 4127.4C1158.1 3909.92 827.532 3498.65 715.119 3009.99L2333.5 2643.5 1613.25 4127.4Z" stroke="#FFFFFF" stroke-width="6.875" stroke-linecap="round" stroke-linejoin="round" stroke-miterlimit="10" fill="#90C226" fill-rule="evenodd"/><text fill="#FFFFFF" font-family="Trebuchet MS,Trebuchet MS_MSFontService,sans-serif" font-weight="400" font-size="54" transform="matrix(1 0 0 1 1003.97 3093)">5. </text><text fill="#FFFFFF" font-family="Trebuchet MS,Trebuchet MS_MSFontService,sans-serif" font-weight="700" font-size="64" transform="matrix(1 0 0 1 1069.28 3093)">Διαχείριση Καλαθιού</text><text fill="#FFFFFF" font-family="Trebuchet MS,Trebuchet MS_MSFontService,sans-serif" font-weight="400" font-size="50" transform="matrix(1 0 0 1 1003.97 3177)">Με επιλογή στο κουμπί «</text><text fill="#FFFFFF" font-family="Trebuchet MS,Trebuchet MS_MSFontService,sans-serif" font-weight="700" font-size="50" transform="matrix(1 0 0 1 1560.85 3177)">Καλάθι</text><text fill="#FFFFFF" font-family="Trebuchet MS,Trebuchet MS_MSFontService,sans-serif" font-weight="400" font-size="50" transform="matrix(1 0 0 1 1723.56 3177)">» </text><text fill="#FFFFFF" font-family="Trebuchet MS,Trebuchet MS_MSFontService,sans-serif" font-weight="400" font-size="50" transform="matrix(1 0 0 1 1003.97 3232)">ο χρήστης μπορεί σε οποιαδήποτε </text><text fill="#FFFFFF" font-family="Trebuchet MS,Trebuchet MS_MSFontService,sans-serif" font-weight="400" font-size="50" transform="matrix(1 0 0 1 1003.97 3286)">φάση της παραγγελίας μπορεί να </text><text fill="#FFFFFF" font-family="Trebuchet MS,Trebuchet MS_MSFontService,sans-serif" font-weight="700" font-size="50" transform="matrix(1 0 0 1 1003.97 3340)">επεξεργαστεί την παραγγελία</text><path d="M715.119 3009.99C602.707 2521.34 720.686 2008.48 1035.66 1616.61L2333.5 2643.5 715.119 3009.99Z" stroke="#FFFFFF" stroke-width="6.875" stroke-linecap="round" stroke-linejoin="round" stroke-miterlimit="10" fill="#90C226" fill-rule="evenodd"/><text fill="#FFFFFF" font-family="Trebuchet MS,Trebuchet MS_MSFontService,sans-serif" font-weight="400" font-size="54" transform="matrix(1 0 0 1 763.688 2278)">6. </text><text fill="#FFFFFF" font-family="Trebuchet MS,Trebuchet MS_MSFontService,sans-serif" font-weight="700" font-size="64" transform="matrix(1 0 0 1 829 2278)">Ολοκλήρωση Παραγγελίας</text><text fill="#FFFFFF" font-family="Trebuchet MS,Trebuchet MS_MSFontService,sans-serif" font-weight="400" font-size="50" transform="matrix(1 0 0 1 763.688 2362)">Με πάτημα στο κουμπί «</text><text fill="#FFFFFF" font-family="Trebuchet MS,Trebuchet MS_MSFontService,sans-serif" font-weight="700" font-size="50" transform="matrix(1 0 0 1 1309.68 2362)">Ολοκλήρωση </text><text fill="#FFFFFF" font-family="Trebuchet MS,Trebuchet MS_MSFontService,sans-serif" font-weight="700" font-size="50" transform="matrix(1 0 0 1 763.688 2417)">Παραγγελιάς</text><text fill="#FFFFFF" font-family="Trebuchet MS,Trebuchet MS_MSFontService,sans-serif" font-weight="400" font-size="50" transform="matrix(1 0 0 1 1066.19 2417)">» εμφανίζεται αναλυτική </text><text fill="#FFFFFF" font-family="Trebuchet MS,Trebuchet MS_MSFontService,sans-serif" font-weight="400" font-size="50" transform="matrix(1 0 0 1 763.688 2471)">αναφορά της παραγγελίας και </text><text fill="#FFFFFF" font-family="Trebuchet MS,Trebuchet MS_MSFontService,sans-serif" font-weight="400" font-size="50" transform="matrix(1 0 0 1 763.688 2525)">πατώντας «</text><text fill="#FFFFFF" font-family="Trebuchet MS,Trebuchet MS_MSFontService,sans-serif" font-weight="400" font-size="50" transform="matrix(1 0 0 1 1025.51 2525)">Οκει</text><text fill="#FFFFFF" font-family="Trebuchet MS,Trebuchet MS_MSFontService,sans-serif" font-weight="400" font-size="50" transform="matrix(1 0 0 1 1124.05 2525)">» μεταβαίνει στην </text><text fill="#FFFFFF" font-family="Trebuchet MS,Trebuchet MS_MSFontService,sans-serif" font-weight="400" font-size="50" transform="matrix(1 0 0 1 763.688 2580)">πληρωμής της όπου εισάγει τα </text><text fill="#FFFFFF" font-family="Trebuchet MS,Trebuchet MS_MSFontService,sans-serif" font-weight="700" font-size="50" transform="matrix(1 0 0 1 763.688 2634)">στοιχεία της τραπεζικής του κάρτας</text><text fill="#FFFFFF" font-family="Trebuchet MS,Trebuchet MS_MSFontService,sans-serif" font-weight="400" font-size="50" transform="matrix(1 0 0 1 1607.02 2634)">. </text><text fill="#FFFFFF" font-family="Trebuchet MS,Trebuchet MS_MSFontService,sans-serif" font-weight="400" font-size="50" transform="matrix(1 0 0 1 763.688 2698)">Λαμβάνει μήνυμα έγκρισης ή μη καθώς </text><text fill="#FFFFFF" font-family="Trebuchet MS,Trebuchet MS_MSFontService,sans-serif" font-weight="400" font-size="50" transform="matrix(1 0 0 1 763.688 2752)">και πληροφορίες για την παραλαβή </text><text fill="#FFFFFF" font-family="Trebuchet MS,Trebuchet MS_MSFontService,sans-serif" font-weight="400" font-size="50" transform="matrix(1 0 0 1 763.688 2807)">της παραγγελίας.</text><path d="M1035.66 1616.61C1350.63 1224.74 1828.32 996.5 2333.5 996.5L2333.5 2643.5 1035.66 1616.61Z" stroke="#FFFFFF" stroke-width="6.875" stroke-linecap="round" stroke-linejoin="round" stroke-miterlimit="10" fill="#90C226" fill-rule="evenodd"/><text fill="#FFFFFF" font-family="Trebuchet MS,Trebuchet MS_MSFontService,sans-serif" font-weight="400" font-size="54" transform="matrix(1 0 0 1 1419.38 1382)">7. </text><text fill="#FFFFFF" font-family="Trebuchet MS,Trebuchet MS_MSFontService,sans-serif" font-weight="700" font-size="64" transform="matrix(1 0 0 1 1484.69 1382)">Παραλαβή Παραγγελίας</text><text fill="#FFFFFF" font-family="Trebuchet MS,Trebuchet MS_MSFontService,sans-serif" font-weight="400" font-size="50" transform="matrix(1 0 0 1 1419.38 1466)">Με την ολοκλήρωση της </text><text fill="#FFFFFF" font-family="Trebuchet MS,Trebuchet MS_MSFontService,sans-serif" font-weight="400" font-size="50" transform="matrix(1 0 0 1 1419.38 1521)">παραγγελίας εμφανίζονται όλες οι </text><text fill="#FFFFFF" font-family="Trebuchet MS,Trebuchet MS_MSFontService,sans-serif" font-weight="400" font-size="50" transform="matrix(1 0 0 1 1419.38 1575)">διαθέσιμες πληροφορίες για την </text><text fill="#FFFFFF" font-family="Trebuchet MS,Trebuchet MS_MSFontService,sans-serif" font-weight="400" font-size="50" transform="matrix(1 0 0 1 1419.38 1629)">παραλαβή της καθώς και τηλέφωνο </text><text fill="#FFFFFF" font-family="Trebuchet MS,Trebuchet MS_MSFontService,sans-serif" font-weight="400" font-size="50" transform="matrix(1 0 0 1 1419.38 1684)">εξυπηρέτησης πελατών.</text></g></svg>